<svg width="48" height="48" viewBox="0 0 48 48" fill="none" xmlns="http://www.w3.org/2000/svg">
<path fill-rule="evenodd" clip-rule="evenodd" d="M24.6191 1.8912L24.6788 1.89149C34.3103 1.93968 42.9974 10.8747 42.9974 20.7263L42.9977 20.7983L43.0127 21.8697C43.0361 24.1951 42.9585 26.2381 42.6758 28.409L41.2425 37.7901H31.3473C33.0935 34.3029 33.6537 32.4677 33.9966 31.1596L34.147 30.4893H35.1474C36.4564 30.4893 36.8154 28.9407 37.0585 26.6546L37.0871 26.3489C37.1042 26.1397 37.1172 25.9205 37.126 25.6909C37.126 25.4405 36.9687 25.245 36.4905 25.1175L36.4314 25.1029L36.3463 25.1266L36.2124 25.1706L36.1396 25.197L36.0343 25.238L35.9346 25.2796L35.7169 25.3764L33.9966 26.7409L33.7857 24.5553C33.5042 21.6397 31.0404 20.126 27.1266 18.8153L26.8812 18.73L26.5196 18.5989L26.0055 18.4053C25.4983 18.2106 24.967 17.9953 24.425 17.7615C22.7622 17.0441 21.2886 16.2809 20.1262 15.4788L19.9226 15.3354L19.8159 15.4294L19.5111 15.7009L19.2106 15.9763L18.9148 16.2549L18.6242 16.5359L18.3398 16.8188C18.1522 17.0077 17.969 17.1975 17.791 17.3871L17.5279 17.6713L17.2732 17.9546L17.0273 18.2364C16.947 18.3298 16.8681 18.4231 16.791 18.5157L16.5649 18.7922L16.3494 19.065C15.4399 20.2386 14.8489 22.1226 14.7943 22.8045L14.7903 22.8815V27.4733L12.2507 25.6924C12.2174 25.6661 12.1803 25.6529 12.1428 25.6529C11.9716 25.6529 11.5455 25.6924 11.3842 25.9271C11.2773 26.0828 11.2253 26.3249 11.2491 26.4666C11.2491 28.409 11.7881 29.7625 12.6613 30.0172L12.746 30.0185L14.2651 30.4893L14.4659 31.4361L14.5298 31.6765C14.9078 33.102 15.7489 36.2743 17.0271 37.7901H7.22429L6.12149 30.3154C6.11253 30.2167 6.1037 30.1173 6.095 30.0172L6.04424 29.409L5.99648 28.7885L5.95172 28.1586L5.90997 27.5228L5.87125 26.8839L5.81887 25.9271L5.78776 25.2951L5.75972 24.6713L5.72341 23.7581L5.69405 22.8815L5.67168 22.0525L5.65634 21.2817L5.65004 20.8055L5.64648 20.1559C5.64648 14.0476 12.524 5.73244 18.9743 4.57559L19.1078 4.56221L19.1284 4.53047C19.7321 3.62221 20.7017 2.97013 21.9103 2.51402C22.8422 2.16232 23.8062 1.96855 24.5598 1.89685L24.6191 1.8912ZM24.7274 4.28111L24.6422 4.29052C24.0996 4.35476 23.4022 4.50447 22.7538 4.74914C21.7966 5.11042 21.17 5.59912 20.9558 6.17068L20.6628 6.95223L19.8281 6.94578L19.3054 6.94388L19.2367 6.95751C16.421 7.52807 13.415 9.85762 11.2266 12.6522L10.9869 12.9646C9.25426 15.2683 8.08927 17.8489 8.03735 20.0065L8.03554 20.1559L8.03592 20.3575C8.03562 21.6924 8.03554 24.0516 8.03554 25.0644C8.4701 29.9372 8.75224 32.2314 9.46893 35.337L13.8838 35.3532L13.7592 35.0513C13.708 34.925 13.509 34.1977 13.3279 33.5354C13.1809 32.9978 13.0455 32.5029 13.0106 32.4079L13.0043 32.3909L12.9664 32.3879C10.7404 31.6834 9.16864 28.5401 9.34328 25.7458L9.33575 25.5852L9.3334 25.5641C9.69255 23.8249 10.4453 23.5845 12.6209 23.5893L12.6609 23.5845L12.6613 22.0785C12.6971 20.2767 14.0864 17.7407 16.3753 15.3922L16.6913 15.0729L17.0146 14.7557C17.1236 14.6504 17.2337 14.5455 17.3449 14.4411L17.6814 14.1296C17.7378 14.0779 17.7946 14.0265 17.8518 13.9751L18.1966 13.669L18.5465 13.3671L18.9006 13.0699L19.7527 12.3737L21.0658 13.2145L21.138 13.2646C22.1758 14.0424 23.6585 14.8289 25.3716 15.568L25.7004 15.7082L26.1761 15.905L26.6231 16.0837L27.0334 16.2423L27.3988 16.3785L27.7108 16.4901L28.1095 16.6265C32.043 17.9946 34.6999 19.8436 35.5681 22.8892L35.5902 22.9701L35.7066 22.9458C35.8878 22.777 36.3638 22.5391 36.5863 22.4277C37.6342 21.9039 39.0321 23.1583 39.0313 24.6981C38.877 28.7269 38.2943 31.4151 35.6769 32.4079L35.6682 32.4084L35.5681 32.5567L34.3273 35.3532L38.6729 35.337C39.0252 33.9445 39.8212 30.5345 40.1868 28.0343C40.47 25.8596 40.5351 23.7887 40.4978 21.3722L40.4858 20.4047C40.3377 11.9536 32.8846 4.32157 24.667 4.28045L24.7274 4.28111ZM23.8902 42.4717C26.1823 42.4717 28.2822 41.3997 29.7607 39.75V40.2833C29.7607 41.1701 30.1159 42.6985 30.3073 43.4892C31.0116 46.3994 16.6745 46.3994 17.8036 43.4892C18.1913 42.6044 18.4465 40.9161 18.4465 39.8959V39.75C19.911 41.2205 21.7374 42.4717 23.8902 42.4717Z" fill="white"/>
<g filter="url(#filter0_f_4016_2042)">
<ellipse cx="18.4224" cy="31.0388" rx="2" ry="3.5" transform="rotate(-28.3581 18.4224 31.0388)" fill="#AA0000"/>
</g>
<g filter="url(#filter1_f_4016_2042)">
<ellipse cx="29.4216" cy="31.0388" rx="2" ry="3.5" transform="rotate(28.36 29.4216 31.0388)" fill="#AA0000"/>
</g>
<defs>
<filter id="filter0_f_4016_2042" x="12.002" y="23.8148" width="12.8418" height="14.448" filterUnits="userSpaceOnUse" color-interpolation-filters="sRGB">
<feFlood flood-opacity="0" result="BackgroundImageFix"/>
<feBlend mode="normal" in="SourceGraphic" in2="BackgroundImageFix" result="shape"/>
<feGaussianBlur stdDeviation="2" result="effect1_foregroundBlur_4016_2042"/>
</filter>
<filter id="filter1_f_4016_2042" x="23" y="23.8148" width="12.8418" height="14.448" filterUnits="userSpaceOnUse" color-interpolation-filters="sRGB">
<feFlood flood-opacity="0" result="BackgroundImageFix"/>
<feBlend mode="normal" in="SourceGraphic" in2="BackgroundImageFix" result="shape"/>
<feGaussianBlur stdDeviation="2" result="effect1_foregroundBlur_4016_2042"/>
</filter>
</defs>
</svg>
