<svg width="35" height="26" viewBox="0 0 35 26" fill="none" xmlns="http://www.w3.org/2000/svg">
<path fill-rule="evenodd" clip-rule="evenodd" d="M15.7597 0.0140649C20.1627 -0.107944 24.6643 1.89328 29.0362 5.2875C30.5088 6.43055 31.8613 7.65446 33.0662 8.87972L33.4173 9.24123C33.4738 9.30011 33.5294 9.35842 33.5839 9.41616L33.8986 9.7532C33.949 9.80788 33.9985 9.86198 34.0469 9.91513L34.441 10.3577L34.6022 10.5466C35.0277 11.0586 35.1241 11.9097 34.8319 12.5719L34.7922 12.6608L34.6998 12.8583L34.5905 13.0816C34.5794 13.1038 34.5679 13.1263 34.5565 13.1493C34.5476 13.1669 34.5385 13.1846 34.5294 13.2026L34.3943 13.4624L34.2421 13.7452C34.2152 13.7941 34.1878 13.844 34.1594 13.8947L33.9813 14.2095L33.7857 14.5445C33.7517 14.602 33.7169 14.6601 33.6814 14.7192C32.7476 16.2708 31.6174 17.8186 30.2844 19.2625C26.3617 23.513 21.5226 26.0142 15.7616 25.8679C9.84524 25.7173 5.14154 23.2755 1.63594 19.6701C1.18744 19.2088 0.788743 18.7555 0.439416 18.3206C-0.0410312 17.7222 -0.0735677 16.7078 0.366717 16.0548C0.807016 15.4019 1.55343 15.3578 2.03387 15.9561C2.32962 16.3243 2.67162 16.7132 3.06008 17.1126C5.50103 19.6231 8.61515 21.5123 12.4283 22.2851C9.68897 20.4817 7.82902 16.9608 7.82902 12.913C7.82902 9.46109 9.18151 6.3925 11.2784 4.44542C8.36998 5.84306 5.39877 8.31001 2.76377 11.1985C2.46617 11.5247 2.19653 11.8342 1.96036 12.1171C1.47155 12.7029 0.725908 12.6392 0.294909 11.9749C-0.136074 11.3105 -0.0891944 10.2973 0.399614 9.71153C0.66132 9.398 0.957301 9.05827 1.28216 8.70211C5.69492 3.86497 10.9144 0.148615 15.7597 0.0140649ZM22.0297 4.53208C24.074 6.48293 25.3869 9.51194 25.3869 12.913C25.3869 16.6142 23.832 19.8747 21.4715 21.7847C24.2265 20.8141 26.669 19.0781 28.8134 16.7549C30.0088 15.4595 31.0221 14.0721 31.8546 12.6887C31.9371 12.5515 32.0162 12.4174 32.0915 12.2867L32.2273 12.046L31.9788 11.7837L31.6525 11.4476C30.5215 10.2977 29.2488 9.14622 27.8657 8.07237C25.9282 6.56819 23.9726 5.36473 22.0297 4.53208ZM20.4113 12.7207C20.0855 12.8923 19.7258 12.9875 19.3479 12.9875C17.8707 12.9875 16.6733 11.5342 16.6733 9.74135C16.6733 9.28272 16.7516 8.84626 16.893 8.45071C16.8204 8.44555 16.7471 8.44307 16.6733 8.44307C14.6052 8.44307 12.9289 10.4778 12.9289 12.9877C12.9289 15.4975 14.6052 17.5322 16.6733 17.5322C18.7413 17.5322 20.4178 15.4975 20.4178 12.9877C20.4178 12.8981 20.4156 12.809 20.4113 12.7207ZM16.608 5.12232C20.1531 5.12232 23.0271 8.61035 23.0271 12.9132C23.0271 17.2152 20.1531 20.7038 16.608 20.7038C13.0629 20.7038 10.1889 17.2152 10.1889 12.9132C10.1889 8.61035 13.0629 5.12232 16.608 5.12232Z" fill="white"/>
</svg>
