<svg width="30" height="34" viewBox="0 0 30 34" fill="none" xmlns="http://www.w3.org/2000/svg">
<path fill-rule="evenodd" clip-rule="evenodd" d="M26.2857 23.4936C26.0923 23.6219 25.9043 23.7119 25.7257 23.7658C25.9853 22.9274 26.2624 21.5021 25.8509 21.3696C25.4385 21.2367 24.9334 22.8087 24.9334 22.8087C22.891 29.312 17.6697 32.3317 15.3915 32.3599C14.6182 32.3699 13.3885 32.0234 12.0469 31.2608C10.1761 30.1354 8.09166 28.1591 6.66685 25.3659C6.3904 24.7799 6.1421 24.1547 5.93374 23.4858C5.51027 22.1031 5.03058 21.6517 4.76227 21.7928C4.43299 21.8978 4.58848 22.8208 4.79174 23.6215C4.59018 23.5755 4.36253 23.4776 4.10032 23.2874C3.00202 22.492 1.8529 20.3072 2.06464 18.2205C2.11104 17.7448 2.26181 17.1272 2.69882 16.8943C2.8499 16.8131 3.02234 16.7856 3.19037 16.7823C3.53016 18.1213 3.9831 19.4797 4.26666 19.3808C4.54139 19.2847 4.26699 17.7567 4.20838 15.9592C4.41299 15.7554 4.63963 15.564 5.01398 15.1944C6.50594 14.1455 9.41566 14.3138 15.4353 12.8256C20.4179 11.5986 21.859 9.41138 22.171 7.88007C23.7792 9.49922 24.9225 11.4413 25.2776 13.0658C25.612 14.4971 25.8128 15.2807 26.0638 15.8079C26.0161 17.6696 25.7193 19.2823 26.0019 19.3808C26.2787 19.477 26.7174 18.184 27.0544 16.8763C27.2939 16.8459 27.5822 16.8466 27.8166 16.9767C28.2499 17.216 28.3889 17.8501 28.4241 18.3387C28.5867 20.4728 27.4088 22.7487 26.2857 23.4936ZM29.8605 18.1987C29.7648 16.9621 29.2835 16.1111 28.4643 15.6653C28.3285 15.5904 28.4485 1.02306 15.1622 0.685795C1.65511 0.342451 1.77163 15.5122 1.61523 15.5925C0.782257 16.0255 0.281649 16.8565 0.153633 18.0608C0.120865 18.3688 0.112081 18.6842 0.124577 18.9987C0.137073 19.3151 0.172209 19.6335 0.227265 19.9498C0.337729 20.5835 0.530257 21.2085 0.792385 21.7954C1.23759 22.7979 1.88648 23.6853 2.63063 24.3032C2.62117 24.8475 2.5472 27.7213 0.645793 28.1554C0.645793 28.1554 3.82774 30.293 7.28574 28.9672C7.60558 29.4536 7.91502 29.9219 8.21198 30.3322C10.6187 32.9883 13.503 33.8754 15.1902 33.7951C16.9637 33.7107 19.1657 33.22 21.5886 30.5919C22.1656 29.9608 22.6477 29.4037 23.0593 28.9066C26.4126 30.1703 29.0342 28.1554 29.0342 28.1554C27.1334 27.7213 27.0592 24.8496 27.0489 24.3039C27.8894 23.6219 28.7771 22.7751 29.1176 22.0328C29.3942 21.4311 29.6051 20.7883 29.7337 20.1387C29.7979 19.8133 29.8414 19.4874 29.8632 19.1619C29.8854 18.8365 29.8845 18.5144 29.8605 18.1987Z" fill="white"/>
</svg>
