<svg width="20" height="20" viewBox="0 0 20 20" fill="none" xmlns="http://www.w3.org/2000/svg">
<path d="M6.25 2.5H4.375C3.33917 2.5 2.5 3.33917 2.5 4.375V6.25" stroke="white" stroke-opacity="0.49" stroke-width="1.5" stroke-linecap="round" stroke-linejoin="round"/>
<path d="M2.5 13.75V15.625C2.5 16.6608 3.33917 17.5 4.375 17.5H6.25" stroke="white" stroke-opacity="0.49" stroke-width="1.5" stroke-linecap="round" stroke-linejoin="round"/>
<path d="M13.75 17.5H15.625C16.6608 17.5 17.5 16.6608 17.5 15.625V13.75" stroke="white" stroke-opacity="0.49" stroke-width="1.5" stroke-linecap="round" stroke-linejoin="round"/>
<path d="M17.5 6.25V4.375C17.5 3.33917 16.6608 2.5 15.625 2.5H13.75" stroke="white" stroke-opacity="0.49" stroke-width="1.5" stroke-linecap="round" stroke-linejoin="round"/>
<path d="M5.83398 8.33337H8.02148" stroke="white" stroke-opacity="0.49" stroke-linecap="round"/>
<path d="M11.8223 8.33337H14.0098" stroke="white" stroke-opacity="0.49" stroke-linecap="round"/>
<path d="M9.70454 8.33337V11.4063C9.68762 11.7535 9.38982 12.3959 8.33398 12.1875" stroke="white" stroke-opacity="0.49" stroke-linecap="round"/>
<path d="M11.8652 15.0406C11.07 14.3809 9.08351 13.4573 7.49975 15.0406" stroke="white" stroke-opacity="0.49" stroke-linecap="round"/>
</svg>
