<svg width="81" height="13" viewBox="0 0 81 13" fill="none" xmlns="http://www.w3.org/2000/svg">
<path d="M6.5 0L7.95934 4.49139H12.6819L8.86126 7.26722L10.3206 11.7586L6.5 8.98278L2.6794 11.7586L4.13874 7.26722L0.318133 4.49139H5.04066L6.5 0Z" fill="#E3E1DF"/>
<path d="M23.5 0L24.9593 4.49139H29.6819L25.8613 7.26722L27.3206 11.7586L23.5 8.98278L19.6794 11.7586L21.1387 7.26722L17.3181 4.49139H22.0407L23.5 0Z" fill="#E3E1DF"/>
<path d="M40.5 0L41.9593 4.49139H46.6819L42.8613 7.26722L44.3206 11.7586L40.5 8.98278L36.6794 11.7586L38.1387 7.26722L34.3181 4.49139H39.0407L40.5 0Z" fill="#E3E1DF"/>
<path d="M57.5 0L58.9593 4.49139H63.6819L59.8613 7.26722L61.3206 11.7586L57.5 8.98278L53.6794 11.7586L55.1387 7.26722L51.3181 4.49139H56.0407L57.5 0Z" fill="#E3E1DF"/>
<path d="M74.5 1.61803L75.4838 4.6459L75.5961 4.99139H75.9593H79.143L76.5674 6.86271L76.2735 7.07624L76.3857 7.42173L77.3695 10.4496L74.7939 8.57827L74.5 8.36475L74.2061 8.57827L71.6305 10.4496L72.6143 7.42173L72.7265 7.07624L72.4326 6.86271L69.857 4.99139H73.0407H73.4039L73.5162 4.6459L74.5 1.61803Z" stroke="#E3E1DF"/>
</svg>
