<svg width="42" height="41" viewBox="0 0 42 41" fill="none" xmlns="http://www.w3.org/2000/svg">
<path fill-rule="evenodd" clip-rule="evenodd" d="M6.83861 18.8816C18.0181 15.5411 32.5298 18.4266 32.5298 18.4266C33.2626 13.2325 30.1998 6.29509 30.1998 6.29509C38.195 15.242 30.6996 39.9715 30.6996 39.9715C34.6348 38.8174 35.5286 37.2587 35.5286 37.2587C37.83 31.6981 37.955 17.7311 37.955 17.7311C38.9127 32.8205 36.8528 36.5025 36.8528 36.5025C39.5791 35.4499 41.5247 33.3516 41.5247 33.3516C41.9398 19.7048 40.7439 13.204 35.3052 5.85453C29.2487 -2.32987 19.5082 0.715449 19.5082 0.715449C19.5082 0.715449 11.3661 -1.537 5.88776 5.71796C-3.77156 18.5098 1.36384 33.9585 1.36384 33.9585C2.16119 34.8381 5.25193 36.8464 5.25193 36.8464C3.49607 30.0749 4.25626 26.3484 4.29529 26.7157C5.09389 34.1871 6.04682 37.135 6.47276 37.3257C10.1958 38.9921 13.686 40.1611 13.686 40.1611C5.81586 30.8856 6.83861 18.8816 6.83861 18.8816Z" fill="white"/>
</svg>
