<svg width="21" height="18" viewBox="0 0 21 18" fill="none" xmlns="http://www.w3.org/2000/svg">
<path d="M13 11.6584H8" stroke="white" stroke-width="1.5" stroke-linecap="round" stroke-linejoin="round"/>
<path fill-rule="evenodd" clip-rule="evenodd" d="M7.61745 11.4134C6.13745 10.3675 5.24995 8.5417 5.56245 6.5317C5.90078 4.3592 7.71161 2.62504 9.89578 2.3692C12.9274 2.01337 15.4999 4.37337 15.4999 7.33337C15.4999 9.02087 14.6616 10.51 13.3808 11.415C13.1508 11.5775 12.9999 11.8292 12.9999 12.1109V14.4167C12.9999 15.5675 12.0674 16.5 10.9166 16.5H10.0833C8.93245 16.5 7.99995 15.5675 7.99995 14.4167V12.1142C7.99995 11.83 7.84828 11.5767 7.61745 11.4134Z" stroke="white" stroke-width="1.5" stroke-linecap="round" stroke-linejoin="round"/>
<path d="M17.167 3.16672L18.1587 2.17505" stroke="white" stroke-width="1.5" stroke-linecap="round" stroke-linejoin="round"/>
<path d="M3.83346 11.5L2.8418 12.4917" stroke="white" stroke-width="1.5" stroke-linecap="round" stroke-linejoin="round"/>
<path d="M4.66696 2.33334L3.67529 1.34167" stroke="white" stroke-width="1.5" stroke-linecap="round" stroke-linejoin="round"/>
<path d="M17.167 11.5L18.1587 12.4917" stroke="white" stroke-width="1.5" stroke-linecap="round" stroke-linejoin="round"/>
<path d="M18 7.33329H19.4083" stroke="white" stroke-width="1.5" stroke-linecap="round" stroke-linejoin="round"/>
<path d="M1.5918 7.33329H3.00013" stroke="white" stroke-width="1.5" stroke-linecap="round" stroke-linejoin="round"/>
<path d="M8 14H12.8917" stroke="white" stroke-width="1.5" stroke-linecap="round" stroke-linejoin="round"/>
</svg>
