<svg width="40" height="16" viewBox="0 0 40 16" fill="none" xmlns="http://www.w3.org/2000/svg">
<path d="M36.5822 3.62714C33.7394 2.80334 30.9103 1.94819 28.1215 0.927293C26.8775 0.470093 25.948 0.249444 25.1935 0.170544C25.0048 0.150894 24.8297 0.139043 24.659 0.135143C24.4885 0.135143 24.3313 0.139043 24.1786 0.150893C23.8687 0.174593 23.5903 0.221843 23.3164 0.284843C22.3283 0.509543 21.4301 0.911543 19.8044 0.986393C18.1789 0.911543 17.2807 0.509543 16.2926 0.284843C16.0187 0.221843 15.7358 0.174593 15.4304 0.150893C15.2687 0.139043 15.107 0.135143 14.941 0.135143C14.7703 0.139043 14.5951 0.146993 14.4065 0.166643C13.652 0.245543 12.7225 0.466194 11.4785 0.923394C8.68973 1.94819 5.86948 2.80334 3.03129 3.63104C2.41156 3.80834 1.92207 3.53639 0 4.04489C0.07185 4.05674 3.23338 6.20069 6.09403 9.07784C8.48314 11.352 11.8782 14.7532 15.9694 15.238C17.5681 15.4272 18.2237 15.4351 19.7776 15.4351C21.0305 15.3918 23.011 15.447 24.1157 15.3129C27.8296 14.8518 30.1379 12.5185 34.1212 9.03059C37.0447 6.74864 39.5551 4.04879 39.5999 4.04099C37.687 3.53639 37.1974 3.80444 36.5822 3.62714ZM7.63439 5.33759C7.63439 5.33759 17.3839 6.24014 19.7192 6.38204C22.0589 6.53189 32.2396 5.13659 32.2621 5.14049C31.988 5.04989 22.4999 12.5937 7.63439 5.33759Z" fill="white"/>
</svg>
