<svg width="39" height="26" viewBox="0 0 39 26" fill="none" xmlns="http://www.w3.org/2000/svg">
<path d="M38 4.5L26 13L38 21.5V4.5Z" stroke="url(#paint0_linear_393_964)" stroke-width="1.8" stroke-linecap="round" stroke-linejoin="round"/>
<path d="M22.6667 1.5H4.33333C2.49238 1.5 1 2.97106 1 4.78571V21.2143C1 23.0289 2.49238 24.5 4.33333 24.5H13.5H22.6667C24.5076 24.5 26 23.0289 26 21.2143V4.78571C26 2.97106 24.5076 1.5 22.6667 1.5Z" stroke="url(#paint1_linear_393_964)" stroke-width="1.8" stroke-linecap="round" stroke-linejoin="round"/>
<path d="M10.984 15.848V16.5H7.732V10.768H8.504V15.848H10.984ZM12.4254 12.448V16.5H11.7134V12.448H12.4254ZM12.5774 11.176C12.5774 11.2453 12.5627 11.3107 12.5334 11.372C12.5067 11.4307 12.4694 11.484 12.4214 11.532C12.376 11.5773 12.3214 11.6133 12.2574 11.64C12.196 11.6667 12.1307 11.68 12.0614 11.68C11.992 11.68 11.9267 11.6667 11.8654 11.64C11.8067 11.6133 11.7547 11.5773 11.7094 11.532C11.664 11.484 11.628 11.4307 11.6014 11.372C11.5747 11.3107 11.5614 11.2453 11.5614 11.176C11.5614 11.1067 11.5747 11.0413 11.6014 10.98C11.628 10.916 11.664 10.8613 11.7094 10.816C11.7547 10.768 11.8067 10.7307 11.8654 10.704C11.9267 10.6773 11.992 10.664 12.0614 10.664C12.1307 10.664 12.196 10.6773 12.2574 10.704C12.3214 10.7307 12.376 10.768 12.4214 10.816C12.4694 10.8613 12.5067 10.916 12.5334 10.98C12.5627 11.0413 12.5774 11.1067 12.5774 11.176ZM17.0673 12.448L15.4153 16.5H14.7753L13.1233 12.448H13.7033C13.7619 12.448 13.8099 12.4627 13.8473 12.492C13.8846 12.5213 13.9099 12.556 13.9233 12.596L14.9513 15.204C14.9833 15.3027 15.0113 15.3987 15.0353 15.492C15.0593 15.5853 15.0819 15.6787 15.1033 15.772C15.1246 15.6787 15.1473 15.5853 15.1713 15.492C15.1953 15.3987 15.2246 15.3027 15.2593 15.204L16.2993 12.596C16.3153 12.5533 16.3419 12.5187 16.3793 12.492C16.4166 12.4627 16.4606 12.448 16.5113 12.448H17.0673ZM20.3229 14.032C20.3229 13.8667 20.2989 13.716 20.2509 13.58C20.2055 13.4413 20.1375 13.3227 20.0469 13.224C19.9589 13.1227 19.8509 13.0453 19.7229 12.992C19.5949 12.936 19.4495 12.908 19.2869 12.908C18.9455 12.908 18.6749 13.008 18.4749 13.208C18.2775 13.4053 18.1549 13.68 18.1069 14.032H20.3229ZM20.8989 15.932C20.8109 16.0387 20.7055 16.132 20.5829 16.212C20.4602 16.2893 20.3282 16.3533 20.1869 16.404C20.0482 16.4547 19.9042 16.492 19.7549 16.516C19.6055 16.5427 19.4575 16.556 19.3109 16.556C19.0309 16.556 18.7722 16.5093 18.5349 16.416C18.3002 16.32 18.0962 16.1813 17.9229 16C17.7522 15.816 17.6189 15.5893 17.5229 15.32C17.4269 15.0507 17.3789 14.7413 17.3789 14.392C17.3789 14.1093 17.4215 13.8453 17.5069 13.6C17.5949 13.3547 17.7202 13.1427 17.8829 12.964C18.0455 12.7827 18.2442 12.6413 18.4789 12.54C18.7135 12.436 18.9775 12.384 19.2709 12.384C19.5135 12.384 19.7375 12.4253 19.9429 12.508C20.1509 12.588 20.3295 12.7053 20.4789 12.86C20.6309 13.012 20.7495 13.2013 20.8349 13.428C20.9202 13.652 20.9629 13.908 20.9629 14.196C20.9629 14.308 20.9509 14.3827 20.9269 14.42C20.9029 14.4573 20.8575 14.476 20.7909 14.476H18.0829C18.0909 14.732 18.1255 14.9547 18.1869 15.144C18.2509 15.3333 18.3389 15.492 18.4509 15.62C18.5629 15.7453 18.6962 15.84 18.8509 15.904C19.0055 15.9653 19.1789 15.996 19.3709 15.996C19.5495 15.996 19.7029 15.976 19.8309 15.936C19.9615 15.8933 20.0735 15.848 20.1669 15.8C20.2602 15.752 20.3375 15.708 20.3989 15.668C20.4629 15.6253 20.5175 15.604 20.5629 15.604C20.6215 15.604 20.6669 15.6267 20.6989 15.672L20.8989 15.932Z" fill="url(#paint2_linear_393_964)"/>
<defs>
<linearGradient id="paint0_linear_393_964" x1="26" y1="13.3148" x2="38" y2="13.3148" gradientUnits="userSpaceOnUse">
<stop stop-color="#CA9C43"/>
<stop offset="0.604" stop-color="#98752F"/>
<stop offset="1" stop-color="#92702D"/>
</linearGradient>
<linearGradient id="paint1_linear_393_964" x1="1" y1="13.4259" x2="26" y2="13.4259" gradientUnits="userSpaceOnUse">
<stop stop-color="#CA9C43"/>
<stop offset="0.604" stop-color="#98752F"/>
<stop offset="1" stop-color="#92702D"/>
</linearGradient>
<linearGradient id="paint2_linear_393_964" x1="7" y1="13.6852" x2="22" y2="13.6852" gradientUnits="userSpaceOnUse">
<stop stop-color="#CA9C43"/>
<stop offset="0.604" stop-color="#98752F"/>
<stop offset="1" stop-color="#92702D"/>
</linearGradient>
</defs>
</svg>
