<svg width="48" height="49" viewBox="0 0 48 49" fill="none" xmlns="http://www.w3.org/2000/svg">
<path fill-rule="evenodd" clip-rule="evenodd" d="M29.0849 24.178C32.4527 18.4419 33.7854 9.58206 33.9835 4.96291C34.1278 3.75133 33.2813 3.69453 33.1191 4.84934C32.5248 9.08989 28.4905 23.3829 16.8377 32.5643C14.0641 34.3059 14.8025 37.8272 16.6036 39.2471C20.3316 41.9919 23.8977 43.7527 28.0042 44.0176C29.0488 43.8662 29.2469 43.5443 28.0582 42.9197C25.5188 41.1968 19.071 37.2215 20.7101 35.1769C22.1327 33.2837 26.2392 29.6679 29.0849 24.178Z" fill="white"/>
<path fill-rule="evenodd" clip-rule="evenodd" d="M34.7279 34.4919C33.1092 32.5348 31.2767 31.0881 24.6487 32.7334C24.0686 32.8751 23.641 33.8395 24.4349 33.9815C26.7257 34.4635 28.9859 33.4993 29.7494 36.0237C29.7494 37.442 28.4362 38.52 28.6804 39.6262C29.1997 40.4202 30.574 39.8247 31.9179 39.4276C34.5753 38.8318 35.5221 36.1372 34.7279 34.4919Z" fill="white"/>
</svg>
