<svg width="21" height="20" viewBox="0 0 21 20" fill="none" xmlns="http://www.w3.org/2000/svg">
<path d="M6.75 2.5H4.875C3.83917 2.5 3 3.33917 3 4.375V6.25" stroke="white" stroke-width="1.5" stroke-linecap="round" stroke-linejoin="round"/>
<path d="M3 13.75V15.625C3 16.6608 3.83917 17.5 4.875 17.5H6.75" stroke="white" stroke-width="1.5" stroke-linecap="round" stroke-linejoin="round"/>
<path d="M14.25 17.5H16.125C17.1608 17.5 18 16.6608 18 15.625V13.75" stroke="white" stroke-width="1.5" stroke-linecap="round" stroke-linejoin="round"/>
<path d="M18 6.25V4.375C18 3.33917 17.1608 2.5 16.125 2.5H14.25" stroke="white" stroke-width="1.5" stroke-linecap="round" stroke-linejoin="round"/>
<path d="M12.2678 4.89898C13.2441 5.87529 13.2441 7.4582 12.2678 8.43451C11.2915 9.41082 9.70854 9.41082 8.73223 8.43451C7.75592 7.4582 7.75592 5.87529 8.73223 4.89898C9.70854 3.92267 11.2915 3.92267 12.2678 4.89898" stroke="white" stroke-width="1.5" stroke-linecap="round" stroke-linejoin="round"/>
<path d="M5.5 15.8334L5.7975 14.3467C6.10917 12.7884 7.47667 11.6667 9.06583 11.6667H11.9342C13.5233 11.6667 14.8908 12.7884 15.2025 14.3467L15.5 15.8334" stroke="white" stroke-width="1.5" stroke-linecap="round" stroke-linejoin="round"/>
</svg>
