<svg width="22" height="18" viewBox="0 0 22 18" fill="none" xmlns="http://www.w3.org/2000/svg">
<path fill-rule="evenodd" clip-rule="evenodd" d="M16.6 0.803528C15.4468 -0.733422 13 0.0818179 13 2.00302V5.00929C8.32281 4.86093 5.22286 6.50672 3.22042 8.7657C1.13865 11.1142 0.336679 14.0185 0.0219288 15.9028C-0.115966 16.7283 0.419409 17.3237 0.985129 17.5275C1.52889 17.7234 2.25333 17.6283 2.72507 17.0531C4.30555 15.1261 7.5 12.4884 13 12.4884V15.997C13 17.9182 15.4468 18.7334 16.6 17.1965L21.4 10.7992C22.2 9.733 22.2 8.267 21.4 7.2008L16.6 0.803528ZM15 2.00302L19.8 8.4003C20.0667 8.7557 20.0667 9.2443 19.8 9.5997L15 15.997V11.5C15 10.9477 14.5523 10.5 14 10.5H13C6 10.5 2.39908 14.4621 2.39908 14.4621C2.81724 13.0361 3.52506 11.4371 4.71707 10.0924C6.28166 8.3273 8.5 7 13 7H14C14.5523 7 15 6.55228 15 6V2.00302Z" fill="white"/>
</svg>
