<svg width="44" height="14" viewBox="0 0 44 14" fill="none" xmlns="http://www.w3.org/2000/svg">
<path d="M1.79932 13.2812C1.72651 13.2817 1.65376 13.2771 1.58161 13.2673C1.14915 13.2098 0.556118 12.9599 0.18572 12.1002C-0.075332 11.4933 -0.0605555 10.7357 0.226109 10.0178C0.773825 8.65231 2.19631 7.28288 3.68874 6.6889L3.81286 6.63733C2.97159 6.2744 1.9658 5.73992 1.46241 4.83159C1.34903 4.64074 1.27414 4.42927 1.24202 4.20926C1.20991 3.98925 1.22119 3.76503 1.27524 3.54942C1.47226 2.85528 2.22291 2.37137 3.0238 2.4269C3.61486 2.46855 4.20592 2.76604 4.77235 3.31044C5.29051 3.80625 5.69244 4.35065 6.11899 4.92381C6.26675 5.12213 6.41944 5.32839 6.58198 5.53862L6.00077 5.99278C5.83823 5.7776 5.67963 5.57035 5.52989 5.37202C5.10433 4.79986 4.74181 4.30603 4.26404 3.84988C3.82567 3.42745 3.39124 3.19938 2.97257 3.16963C2.58346 3.14186 2.09485 3.35903 1.98747 3.75568C1.93404 4.00208 1.97747 4.25973 2.10864 4.4746C2.51745 5.21237 3.42769 5.67248 4.17735 5.99179C4.34285 6.05327 4.82653 6.27341 4.79008 6.7008C4.75462 7.03696 4.41082 7.20058 3.96654 7.37907C2.66916 7.8967 1.38656 9.12333 0.912725 10.2964C0.698958 10.8299 0.682211 11.3803 0.86544 11.8057C1.05556 12.2469 1.32253 12.4849 1.68307 12.5335C2.36673 12.6248 3.30357 12.0159 3.81286 11.3743C4.28867 10.7793 4.65315 10.0495 5.00681 9.34843C5.10532 9.15011 5.20974 8.94385 5.31317 8.74652C5.88355 7.65573 6.38595 6.63039 6.84895 5.612C7.76804 3.59206 9.15999 1.93307 10.7687 0.942442C11.3509 0.583475 12.2572 0.180876 13.2659 0.303837C13.8451 0.374242 14.3229 0.620165 14.6096 0.997973C14.9524 1.44817 15.0332 2.09768 14.8243 2.7353C14.2865 4.3804 12.7182 5.82222 11.206 7.03002C11.7321 7.36745 12.2163 7.76693 12.6482 8.21996C13.2905 8.9141 13.5427 10.0634 12.7812 10.9192C12.2443 11.5221 11.2652 11.8017 10.286 11.0669C9.85579 10.7378 9.45377 10.3729 9.08414 9.97613L9.05951 9.94836L7.03808 7.58533L7.59565 7.10141L9.62004 9.46644V9.46148C9.96146 9.82985 10.3332 10.1685 10.7312 10.4739C11.3784 10.9598 11.9478 10.7516 12.2384 10.4253C12.5803 10.0406 12.6876 9.34546 12.1153 8.72668C11.6724 8.26647 11.1717 7.86644 10.6258 7.53674C10.5449 7.49095 10.4766 7.42546 10.4272 7.34626C10.3779 7.26706 10.3491 7.17667 10.3434 7.08337C10.3377 6.99006 10.3554 6.8968 10.3947 6.81213C10.4341 6.72746 10.4939 6.65406 10.5687 6.59866C12.0463 5.42954 13.6314 4.02937 14.1298 2.50623C14.2283 2.19288 14.2589 1.75161 14.0313 1.45015C13.8038 1.1487 13.4048 1.06838 13.1841 1.0416C12.3842 0.942442 11.6415 1.2786 11.1588 1.57609C9.67422 2.49136 8.38275 4.03432 7.52472 5.92237C7.05483 6.95366 6.54652 7.9909 5.97023 9.09557C5.87172 9.29389 5.77321 9.48726 5.66879 9.69054C5.29938 10.4253 4.91716 11.1859 4.39407 11.8443C3.58038 12.8518 2.53223 13.2812 1.79932 13.2812Z" fill="url(#paint0_linear_393_4448)"/>
<path d="M28.4262 6L27.4933 8.53756C27.4263 8.72002 27.3219 8.71903 27.2568 8.53756L26.3121 6.00198H25.2285L26.6362 9.51332C26.6959 9.65822 26.7969 9.78205 26.9265 9.86917C27.0561 9.95629 27.2084 10.0028 27.3642 10.0028C27.52 10.0028 27.6724 9.95629 27.8019 9.86917C27.9315 9.78205 28.0325 9.65822 28.0922 9.51332L29.4812 6H28.4262Z" fill="white"/>
<path d="M23.4516 6C23.2087 5.99961 22.9681 6.04745 22.7436 6.14077C22.5191 6.2341 22.3151 6.37108 22.1433 6.54387C21.9714 6.71667 21.8351 6.92189 21.7422 7.14777C21.6492 7.37366 21.6014 7.61579 21.6016 7.86029V10.141H22.6044V7.86029C22.6044 7.86029 22.6044 7.85335 22.6044 7.85037C22.605 7.73864 22.6275 7.62813 22.6706 7.52516C22.7137 7.42218 22.7765 7.32875 22.8554 7.25021C22.9344 7.17166 23.0279 7.10954 23.1307 7.06738C23.2335 7.02523 23.3435 7.00387 23.4545 7.00452C23.5655 7.00517 23.6753 7.02782 23.7776 7.07118C23.8799 7.11454 23.9727 7.17775 24.0508 7.25722C24.1288 7.33669 24.1905 7.43084 24.2324 7.53432C24.2743 7.63779 24.2955 7.74856 24.2948 7.86029V10.141H25.2986V7.86029C25.2986 7.61604 25.2508 7.37418 25.158 7.14854C25.0651 6.92289 24.9289 6.71788 24.7573 6.54522C24.5857 6.37255 24.382 6.23562 24.1577 6.14224C23.9335 6.04886 23.6932 6.00086 23.4506 6.00099" fill="white"/>
<path d="M20.1884 8.28073C20.1884 8.50638 20.0993 8.72279 19.9408 8.88235C19.7823 9.04191 19.5673 9.13155 19.3432 9.13155C19.119 9.13155 18.904 9.04191 18.7455 8.88235C18.587 8.72279 18.4979 8.50638 18.4979 8.28073V6H17.4961V8.28073C17.5072 8.76654 17.7068 9.22868 18.0521 9.5683C18.3973 9.90793 18.8609 10.0981 19.3437 10.0981C19.8264 10.0981 20.29 9.90793 20.6352 9.5683C20.9805 9.22868 21.1801 8.76654 21.1912 8.28073V6H20.1884V8.28073Z" fill="white"/>
<path d="M37.4123 6.54647C37.2416 6.36651 37.0333 6.22696 36.8025 6.13792C36.5578 6.04454 36.2979 5.9978 36.0361 6.00009C35.7511 5.99758 35.4682 6.0501 35.2027 6.15478C34.9536 6.25289 34.7265 6.40024 34.5348 6.58812C34.3437 6.78146 34.1929 7.01142 34.0915 7.2644C33.9811 7.5445 33.9262 7.84365 33.93 8.14497C33.9251 8.44638 33.9801 8.74574 34.0915 9.02553C34.1922 9.27371 34.3452 9.49698 34.5398 9.68C34.7354 9.86179 34.9652 10.0024 35.2155 10.0935C35.4889 10.1931 35.7779 10.2425 36.0686 10.2393C36.6321 10.248 37.1786 10.0451 37.6015 9.67008L37.0587 9.02354C36.9449 9.12226 36.8218 9.20961 36.6912 9.28434C36.4954 9.38141 36.2789 9.42874 36.0608 9.42218C35.9191 9.42226 35.7787 9.39674 35.646 9.34681C35.5181 9.29817 35.3987 9.22921 35.2924 9.14254C35.1886 9.05744 35.1028 8.95223 35.0402 8.83315C34.9751 8.71051 34.9368 8.57527 34.9279 8.4365C34.906 8.1977 34.906 7.95738 34.9279 7.71857C34.9359 7.58555 34.9705 7.45552 35.0296 7.33626C35.0886 7.217 35.171 7.11094 35.2717 7.02443C35.4825 6.84271 35.7528 6.74624 36.0302 6.75372C36.1738 6.75004 36.3165 6.77708 36.4489 6.83305C36.5618 6.88078 36.6628 6.95327 36.7444 7.04526C36.8223 7.13514 36.8803 7.24058 36.9148 7.35464C36.9507 7.47358 36.9686 7.59725 36.968 7.72154H35.2658V8.43948H37.9522C37.9572 8.39504 37.9599 8.35034 37.96 8.30561V8.16976C37.9663 7.84805 37.9173 7.52768 37.8152 7.22276C37.7293 6.97171 37.5924 6.74141 37.4133 6.54647" fill="white"/>
<path d="M43.5182 8.2788C43.4654 8.15313 43.3884 8.03921 43.2916 7.94363C43.2006 7.85575 43.0961 7.7831 42.9823 7.72845C42.8767 7.67698 42.7669 7.63452 42.6543 7.60152C42.5369 7.56983 42.4178 7.545 42.2976 7.52715C41.9893 7.48253 41.3904 7.45377 41.3904 7.19694C41.3904 6.94011 41.811 6.97085 41.8494 6.96688H43.3911V6.00005H41.9568C41.7705 5.99897 41.5844 6.01557 41.4012 6.04963C41.2267 6.0856 41.0593 6.15026 40.9057 6.24101C40.7463 6.33308 40.6112 6.4623 40.5117 6.61783C40.4034 6.80106 40.3494 7.01162 40.356 7.2247C40.3523 7.36737 40.3785 7.50922 40.433 7.64097C40.4875 7.77272 40.569 7.89141 40.6722 7.98925C40.7643 8.07669 40.8685 8.15018 40.9816 8.2074C41.088 8.26071 41.1987 8.30483 41.3125 8.33929C41.4164 8.37097 41.522 8.39646 41.6288 8.41564C41.7273 8.43448 41.81 8.44936 41.8839 8.46225C41.9903 8.48109 42.5735 8.49894 42.5735 8.74685C42.5735 9.03739 42.1509 9.04433 42.0484 9.04433H40.4526V10.0092H41.9588C42.1944 10.0158 42.4299 9.99116 42.6592 9.9358C42.8356 9.89045 43.0024 9.81353 43.1517 9.70872C43.2945 9.6064 43.4099 9.47014 43.4876 9.31207C43.5685 9.13848 43.6086 8.94847 43.6049 8.75676C43.6081 8.59513 43.5786 8.43453 43.5182 8.28475" fill="white"/>
<path d="M32.9602 6.54647C32.7897 6.36678 32.5818 6.22727 32.3514 6.13792C32.1063 6.04453 31.8461 5.9978 31.584 6.00009C31.2989 5.99758 31.016 6.0501 30.7506 6.15478C30.4989 6.2526 30.2701 6.40214 30.079 6.59387C29.8878 6.7856 29.7385 7.01531 29.6404 7.26837C29.5307 7.54724 29.4765 7.84507 29.4808 8.14497C29.4755 8.44642 29.5304 8.74588 29.6424 9.02553C29.7427 9.27364 29.8953 9.49692 30.0896 9.68C30.2842 9.86113 30.5126 10.0017 30.7615 10.0935C31.0352 10.1931 31.3245 10.2424 31.6155 10.2393C32.1788 10.2485 32.7251 10.0455 33.1474 9.67008L32.6056 9.02354C32.4921 9.1222 32.3694 9.20955 32.2391 9.28434C32.0433 9.38149 31.8268 9.42882 31.6086 9.42218C31.4674 9.42215 31.3272 9.39662 31.1949 9.34681C31.0657 9.29884 30.9452 9.22983 30.8383 9.14254C30.7342 9.05748 30.6481 8.95228 30.5851 8.83315C30.5208 8.71024 30.4829 8.57511 30.4738 8.4365C30.452 8.1977 30.452 7.95738 30.4738 7.71857C30.4818 7.58555 30.5164 7.45552 30.5755 7.33626C30.6346 7.217 30.7169 7.11094 30.8176 7.02443C31.0283 6.84255 31.2987 6.74605 31.5761 6.75372C31.7197 6.75013 31.8624 6.77717 31.9948 6.83305C32.1059 6.87965 32.2052 6.95068 32.2855 7.04093C32.3658 7.13118 32.425 7.23837 32.4588 7.35464C32.4954 7.47342 32.5137 7.59717 32.513 7.72154H30.8137V8.43948H33.4991C33.5049 8.3951 33.5079 8.35038 33.5079 8.30561V8.16976C33.5139 7.84799 33.4645 7.52761 33.3621 7.22276C33.2765 6.97154 33.1396 6.74116 32.9602 6.54647Z" fill="white"/>
<path d="M39.4576 9.44203C39.3886 9.30484 39.3547 9.15248 39.3591 8.99877V4L38.3848 4.18643V9.01167C38.3837 9.19516 38.4016 9.37826 38.438 9.55805C38.4707 9.72094 38.5379 9.87483 38.635 10.0092C38.7379 10.1444 38.8736 10.2506 39.0291 10.3176C39.2343 10.4 39.4545 10.4381 39.6753 10.4297C39.7921 10.4295 39.9087 10.4199 40.024 10.4009H40.0339V9.60763C39.984 9.61531 39.9336 9.61928 39.8832 9.61953C39.6615 9.61953 39.5196 9.56102 39.4556 9.445" fill="white"/>
<defs>
<linearGradient id="paint0_linear_393_4448" x1="1.38586" y1="6.05841" x2="16.3794" y2="6.05841" gradientUnits="userSpaceOnUse">
<stop stop-color="#CA9C43"/>
<stop offset="0.33" stop-color="#C79A42"/>
<stop offset="0.56" stop-color="#BE923E"/>
<stop offset="0.77" stop-color="#AE8638"/>
<stop offset="0.96" stop-color="#98752F"/>
<stop offset="1" stop-color="#92702D"/>
</linearGradient>
</defs>
</svg>
